<svg width="64" height="67" viewBox="0 0 64 67" fill="none" xmlns="http://www.w3.org/2000/svg">
<path d="M29.1614 28.2656L32.0577 30.1075M32.0577 30.1075V27.2295M32.0577 30.1075V32.7552M32.0577 53.5915V39.432M32.0577 53.5915C27.6554 51.5194 23.6006 54.3973 23.6006 58.1962M32.0577 53.5915L32.7528 54.0996M32.0577 32.7552L33.9113 31.9494M32.0577 32.7552V34.8273M29.1614 33.7913L32.0577 34.8273M32.0577 34.8273V39.432M33.9113 38.396L32.0577 39.432M51.0571 30.1075V34.482M51.0571 49.3322V43.0007M53.6058 58.1962C53.7298 58.1962 53.808 58.1962 53.8375 58.1962C54.7643 58.1962 56.502 57.5055 56.502 54.2822C56.502 51.0589 52.5631 50.9438 51.9839 50.9438C51.9839 50.3682 51.5205 49.9077 51.0571 49.3322C50.7868 48.9868 49.7596 48.2961 47.8133 48.2961C45.867 48.2961 44.9943 50.0612 44.8012 50.9438C44.1447 50.9438 42.6927 51.0129 42.1366 51.2892C41.5574 51.2892 40.283 52.4641 39.9355 53.7185M51.0571 39.0867L48.2767 37.3599M51.0571 39.0867V40.0076M51.0571 39.0867V35.4029M51.0571 40.0076L53.8375 38.396M51.0571 40.0076V43.0007M53.8375 32.7552L51.0571 35.4029M51.0571 35.4029V34.482M48.2767 31.9494L51.0571 34.482M51.0571 43.0007C51.9839 43.0007 54.2314 43.0007 55.8069 43.0007M51.0571 43.0007H55.8069M51.0571 43.0007C50.2559 43.0007 48.6236 43.0007 47.1182 43.0007M55.8069 43.0007C57.7764 43.0007 58.1239 42.0797 57.7764 40.0076C57.4288 37.9355 56.7337 33.4459 56.1545 30.6831C55.6232 28.149 52.6555 22.7097 51.3631 21.3822C51.1917 21.2061 50.9282 21.2166 50.7443 21.3796C50.0733 21.9746 49.0911 23.1684 48.1492 25.0423M36.8075 42.7704H39.7902C40.2998 42.7704 40.605 42.2039 40.3247 41.7784L36.8075 36.439H39.7902C40.2998 36.439 40.605 35.8724 40.3247 35.4469L36.8075 30.1075H39.7312C40.2524 30.1075 40.5551 29.5178 40.2512 29.0944L36.8075 24.2948L32.5711 18.3903C32.3176 18.0371 31.7934 18.0339 31.5356 18.3839L23.6682 29.0714M36.8075 24.2948C38.5453 22.5097 43.272 19.9771 48.1492 25.0423M48.1492 25.0423C47.4171 26.4989 46.7094 28.3665 46.1914 30.6831C44.8939 36.485 44.4358 38.6262 44.2219 40.0076C43.9724 41.6193 44.7548 43.0007 46.4231 43.0007C46.6492 43.0007 46.8821 43.0007 47.1182 43.0007M36.8075 42.7704C37.7343 44.267 39.4721 45.6484 42.1366 45.6484M36.8075 42.7704H26.381M42.1366 45.6484C44.8012 45.6484 47.1182 44.0367 47.1182 43.0007M42.1366 45.6484V51.2892M53.6058 58.1962H57.5998C57.9532 58.1962 58.2398 58.4828 58.2398 58.8362V61.24C58.2398 61.5935 57.9532 61.88 57.5998 61.88H6.39977C6.0463 61.88 5.75977 61.5935 5.75977 61.24V58.8362C5.75977 58.4828 6.04626 58.1962 6.39972 58.1962C7.2294 58.1962 8.09946 58.1962 9.00356 58.1962M53.6058 58.1962C52.5687 58.1962 48.3282 58.1962 42.6 58.1962M12.0157 34.5971V36.439M12.0157 49.1019V45.4757M12.0157 49.1019C14.9814 48.4573 16.1863 50.8287 16.418 52.095H20.1252M12.0157 49.1019C11.1275 49.4089 9.35111 50.5754 9.35111 52.7857C8.19261 52.7857 5.75977 53.131 5.75977 54.9729C5.75977 56.8148 5.99147 58.1962 9.00356 58.1962M12.0157 41.8495L9.35111 41.0437M12.0157 41.8495V39.0867M12.0157 41.8495V45.4757M14.9119 37.3599L12.0157 39.0867M12.0157 39.0867V36.439M9.35111 34.5971L12.0157 36.439M12.0157 45.4757C12.9086 45.4757 13.9438 45.2991 14.9119 44.827C16.707 43.9516 18.2716 42.0604 18.2716 38.396C18.2716 35.4955 17.8734 31.7732 16.8407 28.8412C15.8651 26.071 14.3232 24.0062 12.0157 24.0062C7.26581 24.0062 5.75977 34.0215 5.75977 38.396C5.75977 42.7704 7.96091 45.4757 12.0157 45.4757ZM14.9119 44.827C14.9119 46.5693 17.6923 48.4112 20.1252 48.4112M20.1252 48.4112C22.558 48.4112 26.381 46.4542 26.381 42.7704M20.1252 48.4112V52.095M26.381 42.7704H24.1485C23.6281 42.7704 23.3252 42.1823 23.6275 41.7587L27.4237 36.439H24.1485C23.6281 36.439 23.3252 35.8508 23.6275 35.4272L25.37 32.9854M16.8407 28.8412C17.924 27.2295 19.0825 26.654 20.1252 26.654C21.1678 26.654 22.6932 27.3447 23.6682 29.0714M23.6682 29.0714L23.656 29.0881C23.3449 29.5107 23.6466 30.1075 24.1714 30.1075H24.2957M24.2957 30.1075H27.4237L25.37 32.9854M24.2957 30.1075C24.7591 30.9363 25.205 32.3715 25.37 32.9854M20.1252 52.095C21.1678 52.095 22.0946 53.2462 22.0946 54.9729C22.0946 56.6997 21.7471 58.1962 19.0825 58.1962M9.00356 58.1962C12.0568 58.1962 15.4981 58.1962 19.0825 58.1962M19.0825 58.1962C20.5697 58.1962 22.0816 58.1962 23.6006 58.1962M23.6006 58.1962C26.0392 58.1962 28.4962 58.1962 30.8992 58.1962M30.8992 58.1962C35.092 58.1962 39.1205 58.1962 42.6 58.1962M39.9355 53.7185C39.1119 53.1595 38.0779 52.7857 36.8075 52.7857C35.0337 52.7857 33.6999 53.3063 32.7528 54.0996C31.4731 55.1713 30.8992 56.7408 30.8992 58.1962M42.6 58.1962C42.6 57.2356 41.8157 54.9946 39.9355 53.7185M10.8572 12.3794L12.4791 13.1852M14.101 9.15606L14.9119 10.6526M18.5033 8.12V9.96188M9.69866 16.7538H11.6681M26.1493 12.3794L24.5274 13.1852M22.9056 9.15606L22.0946 10.6526M27.3078 16.7538H25.3384M10.8572 21.1283L12.4791 20.3225M14.101 24.3516L14.9119 22.8551M18.5033 25.3877V23.5458M26.1493 21.1283L24.5274 20.3225M22.9056 24.3516L22.0946 22.8551M40.283 18.4806H51.1729C52.0611 18.4806 53.8375 17.8359 53.8375 15.2573C53.8375 13.047 52.1171 12.7948 51.1729 12.7948C50.9509 11.6261 49.2015 10.1652 47.4522 11.0417C46.8691 9.87304 45.728 9.50141 44.5695 9.50141C43.411 9.50141 40.9781 10.4224 40.9781 13.1852C38.9971 13.1852 37.5026 13.7608 37.5026 15.948C37.5026 18.1352 39.2887 18.4806 40.283 18.4806Z" stroke="white" stroke-width="1.5" stroke-linecap="round"/>
<ellipse cx="18.5601" cy="16.1199" rx="4.48" ry="4.8" stroke="white" stroke-width="1.5"/>
</svg>
